<svg xmlns="http://www.w3.org/2000/svg" viewBox="0 0 220 60" role="img" aria-label="Imobsites">
    <g fill="#FFFFFF">
        <path d="M18.85 16.12a6.9 6.9 0 1 0 6.9 6.9 6.91 6.91 0 0 0-6.9-6.9Zm0 11.28a4.38 4.38 0 1 1 4.38-4.38 4.39 4.39 0 0 1-4.38 4.38Z"/>
        <path d="m11 33.49 7.85-4.54 7.85 4.54a1.25 1.25 0 0 0 1.88-1.08v-2.51a10.67 10.67 0 0 0-19.52-5.18 10.67 10.67 0 0 0-2.93 5.18v2.51a1.25 1.25 0 0 0 1.87 1.08Zm7.85-9.72a8.12 8.12 0 0 1 8.1 8.1v.35l-8.1-4.69-8.1 4.69v-.35a8.11 8.11 0 0 1 8.07-8.1Z"/>
        <path d="m35.38 16.95 2.28 2.28 5-5 1.92 1.92-5.32 5.33a1.25 1.25 0 0 1-1.76 0l-3.16-3.16a1.25 1.25 0 1 1 1.76-1.77Z"/>
        <path d="M35.43 27.52h2.5v12.49h-2.5z"/>
        <path d="M44.39 23.1a1.25 1.25 0 0 0-1.77 0l-7.19 7.19a1.25 1.25 0 0 0 0 1.77l7.19 7.19a1.26 1.26 0 0 0 2.13-.89V24a1.25 1.25 0 0 0-.36-.9Zm-1.9 12.15-4.2-4.21 4.2-4.21Z"/>
        <path d="M7.69 36.48h22.32a1.25 1.25 0 0 0 0-2.5H7.69a1.25 1.25 0 0 0 0 2.5Z"/>
        <path d="M53.19 38.74v-12.6h2.52v12.6Zm1.26-14.4a1.35 1.35 0 1 1 1.34-1.35 1.35 1.35 0 0 1-1.34 1.35Z"/>
        <path d="M63.52 26.07a3.9 3.9 0 0 1 3.68 1.93V26.2H69v12.54h-1.8v-6.43c0-2-1.1-3.27-2.95-3.27a3.13 3.13 0 0 0-3.15 3.27v6.43h-1.8V29a3 3 0 0 1 3.22-2.93Z"/>
        <path d="M77.08 26.07c3.75 0 6.5 2.74 6.5 6.6s-2.75 6.61-6.5 6.61-6.51-2.75-6.51-6.61 2.76-6.6 6.51-6.6Zm0 11.35c2.68 0 4.75-2 4.75-4.75s-2.07-4.75-4.75-4.75-4.76 2.07-4.76 4.75 2.08 4.75 4.76 4.75Z"/>
        <path d="M85.69 26.2h1.8v12.54h-1.8Z"/>
        <path d="M91 29h-1.62v-1.5H91v-2.6h1.8v2.6h2.6V29h-2.6v5.89c0 1.24.49 1.73 1.61 1.73a6.81 6.81 0 0 0 1-.08v1.55a8.09 8.09 0 0 1-1.36.12c-2.15 0-3.05-1-3.05-3.11Z"/>
        <path d="M100.92 26.07c2.54 0 4.07 1.4 4.07 3.53a3 3 0 0 1-3.07 3.08h-2.78a6.7 6.7 0 0 0 .08 1.14 3 3 0 0 0 3.2 2.54 4 4 0 0 0 2.57-1l.88 1.25a5.75 5.75 0 0 1-3.67 1.3c-2.89 0-4.77-1.92-4.77-5.1a10.1 10.1 0 0 1 .94-4.59c.75-1.62 2.11-2.2 3.53-2.2Zm2.27 3.29c0-1.16-.7-1.78-2.06-1.78-2.13 0-2.62 1.81-2.79 3.64h2.61c1.52 0 2.24-.58 2.24-1.86Z"/>
        <path d="M114 16.12a6.9 6.9 0 1 0 6.9 6.9 6.91 6.91 0 0 0-6.9-6.9Zm0 11.28a4.38 4.38 0 1 1 4.38-4.38 4.39 4.39 0 0 1-4.38 4.38Z"/>
        <path d="m106.07 33.49 7.85-4.54 7.85 4.54a1.25 1.25 0 0 0 1.88-1.08v-2.51a10.67 10.67 0 0 0-19.52-5.18 10.67 10.67 0 0 0-2.93 5.18v2.51a1.25 1.25 0 0 0 1.87 1.08Zm7.85-9.72a8.12 8.12 0 0 1 8.1 8.1v.35l-8.1-4.69-8.1 4.69v-.35a8.11 8.11 0 0 1 8.07-8.1Z"/>
        <path d="M126.82 27.52h2.5v12.49h-2.5z"/>
        <path d="M107 36.48h22.32a1.25 1.25 0 0 0 0-2.5H107a1.25 1.25 0 0 0 0 2.5Z"/>
        <path d="M135.12 26.07c3.75 0 6.51 2.74 6.51 6.6s-2.76 6.61-6.51 6.61-6.51-2.75-6.51-6.61 2.76-6.6 6.51-6.6Zm0 11.35c2.68 0 4.75-2 4.75-4.75s-2.07-4.75-4.75-4.75-4.76 2.07-4.76 4.75 2.07 4.75 4.76 4.75Z"/>
        <path d="M143.73 26.2h1.8v12.54h-1.8Z"/>
        <path d="M152.91 26.07c1.81 0 4 1 4.06 3.53h-1.72a2.25 2.25 0 0 0-2.34-2.16 3.39 3.39 0 0 0-3.42 3.55v5.67h-1.79V26.2h1.8v1.49a3.88 3.88 0 0 1 3.41-1.62Z"/>
        <path d="M159.88 19.16h1.8v19.58h-1.8Z"/>
        <path d="M167.89 19.38h-1.8v19.36h1.8Z"/>
        <path d="M173.18 29h-1.62v-1.5h1.63v-2.6H175v2.6h2.6V29H175v5.89c0 1.24.49 1.73 1.61 1.73a6.81 6.81 0 0 0 1-.08v1.55a8.09 8.09 0 0 1-1.36.12c-2.15 0-3.05-1-3.05-3.11Z"/>
        <path d="M182.86 26.07c2.54 0 4.07 1.4 4.07 3.53a3 3 0 0 1-3.07 3.08h-2.78a6.7 6.7 0 0 0 .08 1.14 3 3 0 0 0 3.2 2.54 4 4 0 0 0 2.57-1l.88 1.25a5.75 5.75 0 0 1-3.67 1.3c-2.89 0-4.77-1.92-4.77-5.1a10.1 10.1 0 0 1 .94-4.59c.75-1.62 2.11-2.2 3.53-2.2Zm2.27 3.29c0-1.16-.7-1.78-2.06-1.78-2.13 0-2.62 1.81-2.79 3.64h2.61c1.52 0 2.24-.58 2.24-1.86Z"/>
        <path d="M190.62 26.07a3.9 3.9 0 0 1 3.68 1.93V26.2h1.8v12.54h-1.8v-6.43c0-2-1.09-3.27-2.94-3.27a3.13 3.13 0 0 0-3.15 3.27v6.43h-1.8V29a3 3 0 0 1 3.21-2.93Z"/>
        <path d="M203.4 26.07c3.75 0 6.5 2.74 6.5 6.6s-2.75 6.61-6.5 6.61-6.51-2.75-6.51-6.61 2.76-6.6 6.51-6.6Zm0 11.35c2.68 0 4.75-2 4.75-4.75s-2.07-4.75-4.75-4.75-4.76 2.07-4.76 4.75 2.08 4.75 4.76 4.75Z"/>
        <path d="M210.72 34.9a1.1 1.1 0 1 1-1.1 1.11 1.11 1.11 0 0 1 1.1-1.11Z"/>
    </g>
</svg>

